<svg xmlns="http://www.w3.org/2000/svg" viewBox="0 0 1440 320">
    <defs>
        <linearGradient id="blobGradient" x1="0%" y1="0%" x2="70%" y2="50%">
            <stop offset="20%" style="stop-color:#991166"/>
            <stop offset="100%" style="stop-color:#13174a66"/>
        </linearGradient>
    </defs>
    <path fill="url(#blobGradient)" d="M0,32L21.8,58.7C43.6,85,87,139,131,160C174.5,181,218,171,262,144C305.5,117,349,75,393,64C436.4,53,480,75,524,112C567.3,149,611,203,655,192C698.2,181,742,107,785,106.7C829.1,107,873,181,916,208C960,235,1004,213,1047,186.7C1090.9,160,1135,128,1178,101.3C1221.8,75,1265,53,1309,69.3C1352.7,85,1396,139,1418,165.3L1440,192L1440,0L1418.2,0C1396.4,0,1353,0,1309,0C1265.5,0,1222,0,1178,0C1134.5,0,1091,0,1047,0C1003.6,0,960,0,916,0C872.7,0,829,0,785,0C741.8,0,698,0,655,0C610.9,0,567,0,524,0C480,0,436,0,393,0C349.1,0,305,0,262,0C218.2,0,175,0,131,0C87.3,0,44,0,22,0L0,0Z"></path>
</svg>
